M48
;Layer_Color=9474304
;FILE_FORMAT=4:2
METRIC,LZ
;TYPE=PLATED
T1F00S00C0.74
T2F00S00C0.85
T3F00S00C0.90
%
T01
X002959Y00108
X003467Y001334
X004229Y00108
X001029Y001575
X001283Y002337
X001029Y002845
T02
X002438Y000546
X003454
X001626Y002807
Y003823
T03
X00188Y001854
Y002108
Y002362
Y002616
Y00287
Y003124
Y003378
X002642
Y003124
Y00287
Y002616
Y002362
Y002108
Y001854
X004394Y002134
Y002388
X004432Y003238
Y003492
X000648Y004039
Y004293
X000546Y002769
Y002515
M30
